<svg width="236" height="43" viewBox="0 0 236 43" fill="none" xmlns="http://www.w3.org/2000/svg">
<g id="Layer_1" clip-path="url(#clip0_1_7)">
<path id="Vector" d="M229.16 24.5C229.16 25.81 230.22 26.87 231.53 26.87C232.84 26.87 233.9 25.81 233.9 24.5C233.9 23.19 232.84 22.13 231.53 22.13C230.22 22.13 229.16 23.19 229.16 24.5ZM199.13 31.61H197.55V42.67H227.58V37.93H199.13V31.61ZM226 36.35H227.58V12.64H226V36.35ZM205.53 25.29H197.55V30.03H221.26V25.29H213.28C212.91 27.09 211.32 28.45 209.41 28.45C207.5 28.45 205.9 27.09 205.54 25.29M209.4 26.87C210.71 26.87 211.77 25.81 211.77 24.5C211.77 23.19 210.71 22.13 209.4 22.13C208.09 22.13 207.03 23.19 207.03 24.5C207.03 25.81 208.09 26.87 209.4 26.87ZM221.26 12.64H197.55V17.38H219.68V23.7H221.26V12.64ZM189.65 12.64H188.07V42.67H189.65V12.64ZM183.33 37.93H159.62V42.67H183.33V37.93ZM171.47 36.35C172.78 36.35 173.84 35.29 173.84 33.98C173.84 32.67 172.78 31.61 171.47 31.61C170.16 31.61 169.1 32.67 169.1 33.98C169.1 35.29 170.16 36.35 171.47 36.35ZM161.2 23.71H181.75V25.29H161.2V23.71ZM159.62 23.71V25.29C159.62 27.91 161.74 30.03 164.36 30.03H178.58C181.2 30.03 183.32 27.91 183.32 25.29V23.71C183.32 21.09 181.2 18.97 178.58 18.97H164.36C161.74 18.97 159.62 21.09 159.62 23.71ZM167.6 12.64H159.62V17.38H183.33V12.64H175.35C174.98 14.44 173.39 15.8 171.48 15.8C169.57 15.8 167.97 14.44 167.61 12.64M171.47 14.22C172.78 14.22 173.84 13.16 173.84 11.85C173.84 10.54 172.78 9.48 171.47 9.48C170.16 9.48 169.1 10.54 169.1 11.85C169.1 13.16 170.16 14.22 171.47 14.22ZM153.3 27.66C153.3 28.97 154.36 30.03 155.67 30.03C156.98 30.03 158.04 28.97 158.04 27.66C158.04 26.35 156.98 25.29 155.67 25.29C154.36 25.29 153.3 26.35 153.3 27.66ZM151.72 12.64H150.14V42.67H151.72V12.64ZM145.4 37.93H121.69V42.67H145.4V37.93ZM133.54 36.35C134.85 36.35 135.91 35.29 135.91 33.98C135.91 32.67 134.85 31.61 133.54 31.61C132.23 31.61 131.17 32.67 131.17 33.98C131.17 35.29 132.23 36.35 133.54 36.35ZM123.27 23.71H143.82V25.29H123.27V23.71ZM121.69 23.71V25.29C121.69 27.91 123.81 30.03 126.43 30.03H140.65C143.27 30.03 145.39 27.91 145.39 25.29V23.71C145.39 21.09 143.27 18.97 140.65 18.97H126.43C123.81 18.97 121.69 21.09 121.69 23.71ZM129.67 12.64H121.69V17.38H145.4V12.64H137.42C137.05 14.44 135.46 15.8 133.55 15.8C131.64 15.8 130.04 14.44 129.68 12.64M133.54 14.22C134.85 14.22 135.91 13.16 135.91 11.85C135.91 10.54 134.85 9.48 133.54 9.48C132.23 9.48 131.17 10.54 131.17 11.85C131.17 13.16 132.23 14.22 133.54 14.22ZM85.34 31.61H83.76V42.67H113.79V37.93H85.34V31.61ZM98.78 33.19C100.09 33.19 101.15 32.13 101.15 30.82C101.15 29.51 100.09 28.45 98.78 28.45C97.47 28.45 96.41 29.51 96.41 30.82C96.41 32.13 97.47 33.19 98.78 33.19ZM113.79 25.29H83.76V30.03H94.9C95.27 28.23 96.86 26.87 98.77 26.87C100.68 26.87 102.28 28.23 102.64 30.03H113.78V25.29H113.79ZM112.21 18.97H85.34V17.39H112.21V18.97ZM113.79 12.64H83.76V23.7H113.79V12.64ZM47.41 36.35H74.28V37.93H47.41V36.35ZM45.83 36.35V37.93C45.83 40.55 47.95 42.67 50.57 42.67H71.12C73.74 42.67 75.86 40.55 75.86 37.93V36.35C75.86 33.73 73.74 31.61 71.12 31.61H50.57C47.95 31.61 45.83 33.73 45.83 36.35ZM56.97 25.29H45.83V30.03H75.86V25.29H64.72C64.35 27.09 62.76 28.45 60.85 28.45C58.94 28.45 57.34 27.09 56.98 25.29M60.85 26.87C62.16 26.87 63.22 25.81 63.22 24.5C63.22 23.19 62.16 22.13 60.85 22.13C59.54 22.13 58.48 23.19 58.48 24.5C58.48 25.81 59.54 26.87 60.85 26.87ZM75.86 12.64H45.83V17.38H57.68V18.96H45.83V23.7H54.52C57.14 23.7 59.26 21.58 59.26 18.96V17.38H62.42V18.96C62.42 21.58 64.54 23.7 67.16 23.7H75.85V18.96H64V17.38H75.85V12.64H75.86ZM37.93 12.64H36.35V42.67H37.93V12.64ZM31.61 12.64H30.03V42.67H31.61V12.64ZM23.71 27.66C23.71 28.97 24.77 30.03 26.08 30.03C27.39 30.03 28.45 28.97 28.45 27.66C28.45 26.35 27.39 25.29 26.08 25.29C24.77 25.29 23.71 26.35 23.71 27.66ZM22.13 12.64H7.9V42.67H9.48V17.38H20.54V42.67H22.12V12.64H22.13ZM235.48 0H0V4.74H235.48V0Z" fill="black"/>
</g>
<defs>
<clipPath id="clip0_1_7">
<rect width="235.48" height="42.67" fill="white"/>
</clipPath>
</defs>
</svg>
